<svg viewBox="0 0 74 74" xmlns="http://www.w3.org/2000/svg"><path data-follow-stroke="#8322FF" data-follow-fill="#8322FF" fill-rule="evenodd" d="M52.164 46.9h-5.88a13.53 13.53 0 0 1-9.214 3.6c-7.485 0-13.553-6.044-13.553-13.5 0-7.455 6.068-13.5 13.553-13.5 6.715 0 12.29 4.865 13.366 11.25H55C53.889 25.87 46.285 19 37.07 19 27.09 19 19 27.06 19 37s8.09 18 18.07 18a18.07 18.07 0 0 0 15.094-8.1Zm10.053 0C58.261 56.914 48.483 64 37.047 64 22.108 64 10 51.912 10 37c0-14.911 12.11-27 27.046-27C51.226 10 62.855 20.891 64 34.75h-4.526c-1.13-11.37-10.74-20.25-22.428-20.25C24.6 14.5 14.508 24.572 14.508 37s10.091 22.5 22.538 22.5c8.89 0 16.578-5.137 20.246-12.6h4.925ZM37.022 73C56.312 73 72.062 57.845 73 38.8H41.15a4.504 4.504 0 0 1-4.128 2.7 4.501 4.501 0 1 1 0-9 4.5 4.5 0 0 1 3.9 2.25h4.822A9.009 9.009 0 0 0 37.022 28c-4.973 0-9.005 4.029-9.005 9 0 4.97 4.032 9 9.005 9a8.987 8.987 0 0 0 6.844-3.15H68C65.255 57.451 52.429 68.5 37.022 68.5 19.615 68.5 5.503 54.396 5.503 37c0-17.397 14.112-31.5 31.519-31.5 16.65 0 30.286 12.903 31.44 29.25h4.513C71.813 15.914 56.16 1 37.022 1 17.127 1 1 17.117 1 37c0 19.882 16.127 36 36.022 36Z" stroke="#8322FF" stroke-width=".4" fill="#8322FF"/></svg>